<svg width="66" height="37" viewBox="0 0 66 37" fill="none" xmlns="http://www.w3.org/2000/svg">
<path d="M54.0586 10.1658L51.5665 10.5095L30.5863 11.6974C29.5469 11.7576 28.7429 12.6217 28.751 13.6518L27.4159 13.8364C26.3511 13.9835 25.3693 13.2384 25.2221 12.1736L24.4102 6.27711C24.263 5.21231 25.0068 4.23045 26.0716 4.0833L52.7076 0.414034C53.1062 0.357852 53.5115 0.662842 53.4754 1.06281C53.2252 3.78232 53.6252 6.53528 54.6231 9.33773C54.7569 9.71362 54.4546 10.1109 54.0586 10.1658Z" fill="#0A0103"/>
<path d="M60.8247 19.8438L55.2171 20.1622L52.6207 23.9238L49.6176 20.4792L31.1428 21.5267C30.07 21.5868 29.151 20.7668 29.0908 19.694L28.7537 13.7507C28.751 13.7172 28.751 13.6851 28.751 13.6517C28.743 12.6217 29.547 11.7575 30.5863 11.6973L51.5666 10.5095L60.2682 10.0159C60.711 9.99046 61.0534 10.4092 60.9304 10.8345C60.1371 13.5955 60.291 16.303 61.3905 18.9556C61.5604 19.365 61.2675 19.8198 60.8247 19.8438Z" fill="#0A0103"/>
<path d="M61.7659 18.7991C60.7078 16.2455 60.558 13.6036 61.3205 10.9469C61.4141 10.6232 61.3432 10.2714 61.1319 10.0065C60.9178 9.739 60.5861 9.59186 60.245 9.60925L54.9825 9.90755C55.0788 9.68014 55.0869 9.42999 55.0053 9.20125C54.0194 6.4309 53.6408 3.7047 53.8789 1.10023C53.8816 1.07214 53.883 1.04271 53.883 1.01462C53.883 0.751096 53.7733 0.499611 53.5753 0.30966C53.3318 0.0755649 52.9854 -0.0354637 52.6509 0.0100176L26.0163 3.68063C25.3929 3.76624 24.8418 4.08862 24.4619 4.59025C24.082 5.09054 23.9202 5.70989 24.0058 6.33192L24.8191 12.2298C24.9809 13.4056 25.9922 14.2617 27.148 14.2617C27.255 14.2617 27.362 14.2537 27.4704 14.239L28.3666 14.1159L28.6837 19.7168C28.7572 21.0117 29.8715 22.0069 31.1651 21.932L49.4418 20.8966L52.6576 24.5846L55.4387 20.5569L60.8469 20.2505C61.1894 20.2305 61.5024 20.0459 61.6843 19.7556C61.8649 19.4693 61.8943 19.1108 61.7659 18.7991ZM27.3593 13.4337C26.5193 13.5487 25.7407 12.9588 25.6244 12.1187L24.8124 6.22089C24.7562 5.81423 24.8619 5.40891 25.1107 5.08118C25.3582 4.75345 25.7193 4.54209 26.1273 4.48591L52.762 0.816641C52.7753 0.813966 52.7874 0.813968 52.8008 0.813968C52.8784 0.813968 52.9586 0.844734 53.0135 0.896903C53.0549 0.937034 53.0737 0.979839 53.0696 1.02532C52.9974 1.81723 52.98 2.61717 53.0161 3.42647L29.7805 6.79074L29.8474 7.27231L53.0696 4.23576C53.1312 4.94741 53.2355 5.66441 53.38 6.38676L30.1885 9.74569L30.2541 10.2259L53.5552 7.17867C53.7385 7.93981 53.9659 8.70497 54.2401 9.47414C54.2562 9.52096 54.2495 9.57045 54.2174 9.62128C54.1719 9.69619 54.089 9.75104 54.002 9.76308L51.534 10.1029L30.5631 11.2921C29.9357 11.3268 29.3592 11.6051 28.9405 12.0733C28.6288 12.4211 28.4335 12.8438 28.368 13.2946L27.3593 13.4337ZM60.9954 19.3235C60.9754 19.3556 60.9152 19.4319 60.8015 19.4386L54.9946 19.7676L52.5827 23.2617L49.7923 20.0619L31.1196 21.12C30.2701 21.1682 29.5438 20.5181 29.4956 19.6713L29.1746 14.0049L29.1585 13.728C29.1478 13.5353 29.1732 13.3494 29.2281 13.1768C29.4154 12.5856 29.9531 12.1415 30.6086 12.104L41.4866 11.4874L51.6089 10.9135L60.2905 10.4212C60.4028 10.4132 60.4724 10.4841 60.4965 10.5135C60.5246 10.5496 60.5674 10.6232 60.5393 10.7235C59.7246 13.5608 59.8838 16.3833 61.0141 19.1108C61.0543 19.2071 61.0195 19.2847 60.9954 19.3235Z" fill="white"/>
<path d="M0.0458984 23.9237H2.6477V33.4668H10.5427V36.0699H0.0458984V23.925V23.9237Z" fill="white"/>
<path d="M10.5878 36.1141H0V23.8783H2.69276V33.4213H10.5878V36.1141ZM0.0909616 36.0231H10.4981V33.511H2.60313V23.9679H0.0909616V36.0231Z" fill="white"/>
<path d="M18.0718 36.0684C14.3757 36.0684 11.877 33.587 11.877 29.9953V23.9222H23.5014V26.5254H14.4788V29.9953C14.4788 32.0259 15.9355 33.4653 18.14 33.4653H23.5014V36.0684H18.0704H18.0718ZM23.5028 31.2969H16.389V28.6938H23.5028V31.2969Z" fill="white"/>
<path d="M23.5485 36.1141H18.072C16.25 36.1141 14.689 35.5255 13.5573 34.4112C12.4283 33.301 11.833 31.7747 11.833 29.9955V23.8783H23.5485V26.5711H14.5258V29.9955C14.5258 32.0435 15.9785 33.42 18.1415 33.42H23.5485V36.1128V36.1141ZM11.9226 23.9679V29.9955C11.9226 31.7492 12.5099 33.2541 13.6202 34.347C14.7344 35.4439 16.2741 36.0231 18.072 36.0231H23.4575V33.511H18.1415C15.9598 33.511 14.4348 32.0649 14.4348 29.9955V26.4801H23.4575V23.9679H11.9226ZM23.5485 31.3426H16.3437V28.6498H23.5485V31.3426ZM16.4346 31.2516H23.4575V28.7394H16.4346V31.2516Z" fill="white"/>
<path d="M37.937 32.4767C37.937 34.6277 36.2716 36.0684 33.7901 36.0684H29.5564C27.0924 36.0684 25.4443 34.6117 25.4443 32.4072C25.4443 30.2027 27.0589 28.6938 29.4868 28.6938H33.7554C34.7091 28.6938 35.3338 28.2604 35.3338 27.6009C35.3338 26.9414 34.7091 26.5254 33.7901 26.5254H26.1386V23.9222H33.7901C36.2716 23.9222 37.937 25.379 37.937 27.5661V32.4767ZM33.7901 33.4653C34.7105 33.4653 35.3338 32.9101 35.3338 32.0594V31.0882C34.883 31.2273 34.3627 31.2969 33.8236 31.2969H29.5898C28.6695 31.2969 28.0461 31.7303 28.0461 32.3898C28.0461 33.0493 28.6708 33.4653 29.6246 33.4653H33.7888H33.7901Z" fill="white"/>
<path d="M33.7897 36.114H29.556C27.0692 36.114 25.3984 34.6251 25.3984 32.4073C25.3984 30.1894 27.0411 28.6497 29.4864 28.6497H33.755C34.6873 28.6497 35.2893 28.2377 35.2893 27.6023C35.2893 26.9669 34.6873 26.5723 33.7897 26.5723H26.0927V23.8795H33.7897C36.2966 23.8795 37.982 25.3617 37.982 27.5688V32.4795C37.982 34.6546 36.2979 36.1167 33.7897 36.1167V36.114ZM29.4864 28.7393C27.0946 28.7393 25.4881 30.2135 25.4881 32.4073C25.4881 34.6011 27.1227 36.023 29.5546 36.023H33.7884C36.2417 36.023 37.8897 34.5984 37.8897 32.4768V27.5662C37.8897 25.4138 36.2417 23.9678 33.7884 23.9678H26.1823V26.48H33.7884C34.7395 26.48 35.3776 26.9308 35.3776 27.601C35.3776 28.2711 34.7395 28.7393 33.7536 28.7393H29.4851H29.4864ZM33.7897 33.5108H29.6255C28.6544 33.5108 28.0016 33.06 28.0016 32.3899C28.0016 31.7197 28.641 31.2515 29.5907 31.2515H33.8245C34.3649 31.2515 34.8826 31.1806 35.3214 31.0455L35.3802 31.0281V32.0608C35.3802 32.929 34.7408 33.5108 33.7911 33.5108H33.7897ZM29.5907 31.3425C28.6945 31.3425 28.0912 31.7638 28.0912 32.3899C28.0912 33.0159 28.7079 33.4199 29.6255 33.4199H33.7897C34.686 33.4199 35.2893 32.8728 35.2893 32.0595V31.1485C34.8545 31.2742 34.3502 31.3411 33.8245 31.3411H29.5907V31.3425Z" fill="white"/>
<path d="M60.057 23.9237C63.5965 23.9237 65.9562 26.179 65.9562 29.546V36.0699H63.3544V29.6503C63.3544 27.7762 62.0355 26.5268 60.041 26.5268H56.761V36.0699H54.1592V23.925H60.0584L60.057 23.9237Z" fill="white"/>
<path d="M65.9997 36.1141H63.3069V29.6491C63.3069 27.8084 61.9933 26.5711 60.0376 26.5711H56.8031V36.1141H54.1104V23.8783H60.055C63.6106 23.8783 65.9997 26.155 65.9997 29.5447V36.1141ZM63.3979 36.0231H65.9101V29.5447C65.9101 26.2099 63.5571 23.9679 60.0564 23.9679H54.2027V36.0231H56.7148V26.4801H60.039C62.0482 26.4801 63.3979 27.7536 63.3979 29.6477V36.0218V36.0231Z" fill="white"/>
<path d="M40.3125 23.9237H47.7206C50.3585 23.9237 52.1109 25.3978 52.1109 27.6371C52.1109 29.6156 50.7571 30.9158 48.6583 31.2288L52.1109 36.0699H48.9178L45.5174 31.2984H42.9143V36.0699H40.3125V23.925V23.9237ZM42.9156 28.6939H47.5828C48.7453 28.6939 49.5091 28.3127 49.5091 27.6184C49.5091 26.9241 48.7453 26.5255 47.6176 26.5255H42.9156V28.6939Z" fill="white"/>
<path d="M52.1988 36.1141H48.8947L45.4943 31.3426H42.9594V36.1141H40.2666V23.8783H47.7202C50.3728 23.8783 52.1546 25.3885 52.1546 27.6359C52.1546 29.5661 50.8785 30.9172 48.7355 31.261L52.1974 36.1141H52.1988ZM48.9415 36.0231H52.0235L48.579 31.1941L48.6525 31.1834C50.7902 30.865 52.0663 29.5394 52.0663 27.6359C52.0663 25.442 50.3206 23.9679 47.7215 23.9679H40.3589V36.0231H42.8711V31.2516H45.5424L48.9428 36.0231H48.9415ZM47.5824 28.7394H42.8697V26.4801H47.6172C48.793 26.4801 49.5541 26.9269 49.5541 27.6185C49.5541 28.31 48.8171 28.7394 47.5837 28.7394H47.5824ZM42.9594 28.6498H47.5824C48.7596 28.6498 49.4632 28.2646 49.4632 27.6198C49.4632 26.975 48.7382 26.5724 47.6172 26.5724H42.9607V28.6512L42.9594 28.6498Z" fill="white"/>
<path d="M6.56541 16.6148C6.88378 16.9331 7.04029 17.3786 7.04029 17.9498V20.4352H5.96881V18.0942C5.96881 17.7625 5.88319 17.5097 5.71598 17.3331C5.54877 17.1565 5.31735 17.0696 5.02975 17.0696C4.74215 17.0696 4.50805 17.1579 4.33817 17.3331C4.16828 17.5083 4.08267 17.7612 4.08267 18.0942V20.4352H3.01119V18.0942C3.01119 17.7625 2.92825 17.5097 2.75836 17.3331C2.59115 17.1579 2.36241 17.0696 2.07213 17.0696C1.78051 17.0696 1.54241 17.1579 1.37118 17.3331C1.2013 17.5083 1.11569 17.7612 1.11569 18.0942V20.4352H0.046875V16.1987H1.11836V16.7097C1.25614 16.5318 1.43138 16.3914 1.65076 16.2897C1.86746 16.188 2.10423 16.1359 2.36508 16.1359C2.62593 16.1359 2.99112 16.2068 3.25197 16.3472C3.51282 16.4877 3.71347 16.6883 3.8566 16.9465C3.99438 16.7017 4.19504 16.5037 4.45588 16.3552C4.71941 16.2068 5.003 16.1359 5.30799 16.1359C5.82701 16.1359 6.24437 16.295 6.56274 16.6134H6.56541V16.6148Z" fill="white"/>
<path d="M13.6061 20.3176C13.3319 20.1918 13.1112 20.0233 12.952 19.8093C12.7928 19.5952 12.7045 19.3585 12.6885 19.0976H13.768C13.7867 19.2595 13.8697 19.3973 14.0101 19.5043C14.1506 19.6113 14.3231 19.6635 14.5345 19.6635C14.7458 19.6635 14.897 19.622 15.0094 19.5404C15.1244 19.4601 15.1819 19.3531 15.1819 19.2274C15.1819 19.1016 15.111 18.9852 14.9706 18.917C14.8301 18.8488 14.6081 18.7739 14.3004 18.6923C13.9847 18.616 13.7265 18.5358 13.5259 18.4555C13.3252 18.3753 13.1527 18.2495 13.0068 18.0823C12.861 17.9151 12.7901 17.6864 12.7901 17.4041C12.7901 17.1205 12.8584 16.956 12.9935 16.7607C13.1286 16.5681 13.3225 16.4142 13.5754 16.3019C13.8282 16.1895 14.1251 16.1346 14.4649 16.1346C14.9706 16.1346 15.3745 16.2604 15.6742 16.5132C15.9765 16.766 16.141 17.1045 16.1718 17.5352H15.1471C15.1338 17.368 15.0615 17.2329 14.9358 17.1339C14.81 17.0322 14.6442 16.9854 14.4328 16.9854C14.2215 16.9854 14.089 17.0215 13.9847 17.0924C13.8804 17.1633 13.8282 17.2623 13.8282 17.3921C13.8282 17.5218 13.8991 17.6422 14.0422 17.7185C14.1853 17.7894 14.4047 17.8669 14.707 17.9432C15.012 18.0194 15.2649 18.0997 15.4655 18.18C15.6662 18.2602 15.836 18.3886 15.9819 18.5585C16.1277 18.7284 16.2012 18.9545 16.2066 19.2367C16.2066 19.4815 16.1384 19.7009 16.0033 19.8935C15.8682 20.0862 15.6742 20.24 15.4214 20.347C15.1685 20.454 14.8743 20.5115 14.5398 20.5115C14.2041 20.5115 13.883 20.4487 13.6061 20.3243V20.3162V20.3176Z" fill="white"/>
<path d="M22.3738 15.1152C22.2481 14.9948 22.1865 14.8463 22.1865 14.667C22.1865 14.4891 22.2494 14.338 22.3738 14.2189C22.4969 14.0985 22.6534 14.037 22.8433 14.037C23.0333 14.037 23.1898 14.0972 23.3155 14.2189C23.4413 14.3393 23.5028 14.4878 23.5028 14.667C23.5028 14.8449 23.4399 14.9961 23.3155 15.1152C23.1898 15.2356 23.036 15.2971 22.8433 15.2971C22.6507 15.2971 22.4969 15.2369 22.3711 15.1152H22.3738Z" fill="white"/>
<path d="M23.3801 16.2001H22.3086V20.4365H23.3801V16.2001Z" fill="white"/>
<path d="M23.3761 16.2001H22.3086V19.0213L23.3761 17.6127V16.2001Z" fill="#ED0311"/>
<path d="M11.1655 16.2002V16.7112C10.7749 16.3513 10.2532 16.1266 9.6793 16.1266C8.47004 16.1266 7.49219 17.1071 7.49219 18.3164C7.49219 19.5256 8.47004 20.5035 9.6793 20.5035C10.8886 20.5035 11.1655 19.9216 11.1655 19.9216V20.4353H12.237V16.1988H11.1655V16.2015V16.2002ZM9.86925 19.6153C9.15225 19.6153 8.57036 19.0334 8.57036 18.3164C8.57036 17.5994 9.15225 17.0175 9.86925 17.0175C10.5863 17.0175 11.1681 17.5994 11.1681 18.3164C11.1681 19.0334 10.5863 19.6153 9.86925 19.6153Z" fill="white"/>
<path d="M20.3325 16.2002V16.7112C19.9419 16.3513 19.4202 16.1266 18.8463 16.1266C17.637 16.1266 16.6592 17.1071 16.6592 18.3164C16.6592 19.5256 17.637 20.5035 18.8463 20.5035C20.0556 20.5035 20.3325 19.9216 20.3325 19.9216V20.4353H21.4039V16.1988H20.3325V16.2015V16.2002ZM19.0336 19.6179C18.3166 19.6179 17.7347 19.036 17.7347 18.3191C17.7347 17.6021 18.3166 17.0202 19.0336 17.0202C19.7506 17.0202 20.3325 17.6021 20.3325 18.3191C20.3325 19.036 19.7506 19.6179 19.0336 19.6179Z" fill="white"/>
</svg>
